# xmcd
# 
# Track frame offsets:
#     182
#     17892
#     35595
#     53520
#     67435
#     82500
#     100197
#     113210
#     133695
#     146780
#     159932
#     176360
#     190037
#     209967
# 
# Disc length: 3056
# 
# Revision: 9
# Processed by: cddbd v1.5.2PL0 Copyright (c) Steve Scherf et al.
# Submitted via: fre:ac v1.0.27
# 
DISCID=c30bee0e
DTITLE=Paul McCartney - Pipes Of Peace
DYEAR=1983
DGENRE=Rock
TTITLE0=Pipes of Peace
TTITLE1=Say Say Say
TTITLE2=The Other Me
TTITLE3=Keep Under Cover
TTITLE4=So Bad
TTITLE5=The Man
TTITLE6=Sweetest Little Show
TTITLE7=Average Person
TTITLE8=Hey Hey
TTITLE9=Tug of Peace
TTITLE10=Through Our Love
TTITLE11=Twice in a Lifetime
TTITLE12=We All Stand Together
TTITLE13=Simple As That
EXTD=
EXTT0=
EXTT1=
EXTT2=
EXTT3=
EXTT4=
EXTT5=
EXTT6=
EXTT7=
EXTT8=
EXTT9=
EXTT10=
EXTT11=
EXTT12=
EXTT13=
PLAYORDER=
